<?xml version="1.0" encoding="UTF-8" standalone="no"?>
<!DOCTYPE svg PUBLIC "-//W3C//DTD SVG 1.1//EN" "http://www.w3.org/Graphics/SVG/1.1/DTD/svg11.dtd">
<svg version="1.1" xmlns="http://www.w3.org/2000/svg" xmlns:xlink="http://www.w3.org/1999/xlink" preserveAspectRatio="xMidYMid meet" viewBox="0 0 640 640" width="1000" height="1000"><defs><path d="M625.7 267.65C625.7 252.09 619.4 238.02 609.22 227.83C599.03 217.65 584.95 211.35 569.4 211.35C568.61 211.35 564.67 211.35 557.57 211.35C545.5 211.35 538.79 211.35 537.45 211.35C524.23 211.35 511.76 215.99 501.9 224.07C495.69 229.13 490.5 235.55 486.83 243.01C471.26 274.56 476.29 322.67 411.61 353.78C409.57 354.94 407.43 355.97 405.17 356.86C404.89 356.97 403.49 357.51 400.98 358.5L400.75 358.59C356.86 375.72 332.47 385.25 327.59 387.15C324.68 429.35 295.04 466.75 251.78 477.55C204.11 489.46 156.01 472.37 126.07 437.46C37.87 489.3 14.3 539.21 14.3 539.21C44.89 539.21 197.87 539.21 473.22 539.21C456.06 504.48 446.53 485.18 444.62 481.32C444.62 481.32 539.92 446.1 561.85 323.96C562.36 323.96 564.87 323.96 569.4 323.96L569.4 323.96C606.94 307.15 625.7 288.38 625.7 267.65Z" id="a1xqx8fHaI"></path><path d="M429.93 286.23C386.89 213.63 299.88 174.6 213.8 196.09C129.77 217.08 78.67 302.22 99.66 386.24C104.55 405.79 113.77 423.12 126.07 437.46C156 472.37 204.11 489.46 251.78 477.55C295.04 466.75 324.68 429.35 327.59 387.15C332.47 385.25 356.85 375.72 400.75 358.59C400.88 358.53 400.96 358.51 400.98 358.5C404.72 356.97 408.27 355.41 411.61 353.78C435.06 340.52 444.11 310.14 429.93 286.23Z" id="j3ebbcdQ"></path><path d="M332.79 400.47C340.11 397.61 398.63 374.76 405.95 371.91C413.3 369.03 416.94 360.74 414.06 353.39C411.19 346.03 402.9 342.4 395.55 345.27C388.23 348.13 329.71 370.98 322.39 373.83C315.03 376.71 311.4 385 314.27 392.35C316.48 398 321.88 401.45 327.59 401.45C329.32 401.45 331.08 401.14 332.79 400.47Z" id="a1nHrr013s"></path><path d="M406.2 371.81C406.62 371.65 409.97 370.33 410.39 370.17C413.22 369.05 416.01 367.73 418.66 366.22C433.46 357.85 444.47 343.58 448.86 327.09C453.24 310.63 450.88 293.53 442.22 278.94C419.62 240.81 384.6 210.19 343.61 192.73C301.24 174.67 255.15 171.03 210.34 182.22C186.21 188.25 164.21 199.12 144.94 214.54C138.77 219.48 137.78 228.47 142.71 234.64C147.64 240.8 156.64 241.8 162.81 236.87C178.84 224.03 197.16 214.98 217.27 209.96C294.63 190.65 377.02 225.01 417.63 293.52C422.34 301.46 423.61 310.76 421.23 319.73C418.8 328.85 412.73 336.72 404.57 341.34C403.08 342.18 401.53 342.93 399.94 343.55C399.52 343.71 396.17 345.02 395.76 345.19C388.41 348.07 384.78 356.37 387.67 363.72C389.88 369.36 395.27 372.8 400.98 372.8C402.72 372.8 404.48 372.48 406.2 371.81Z" id="b8uTsEvf8"></path><path d="M140 259.83C140.35 259.39 140.7 258.95 141.06 258.51C146.03 252.38 145.08 243.37 138.94 238.41C132.81 233.44 123.8 234.38 118.83 240.52C118.4 241.05 117.98 241.59 117.55 242.12C112.66 248.32 113.72 257.31 119.92 262.2C122.55 264.27 125.67 265.27 128.77 265.27C132.99 265.27 137.18 263.41 140 259.83Z" id="a3n8cZYNy7"></path><path d="M255.24 491.42C303.61 479.35 338.42 437.84 341.85 388.14C342.69 376.16 341.62 364.13 338.69 352.4C332.57 327.89 317.27 307.23 295.61 294.22C273.95 281.22 248.52 277.43 224.01 283.56C203.66 288.63 186.5 301.34 175.7 319.32C164.9 337.3 161.76 358.41 166.84 378.76C171.09 395.78 181.72 410.13 196.76 419.17C211.81 428.2 229.47 430.84 246.49 426.58C276.12 419.18 294.21 389.04 286.82 359.41C284.91 351.75 277.15 347.09 269.49 348.99C261.83 350.9 257.17 358.66 259.08 366.32C262.65 380.67 253.9 395.26 239.56 398.85C229.96 401.24 219.98 399.76 211.48 394.66C202.98 389.55 196.98 381.45 194.58 371.84C191.35 358.9 193.35 345.48 200.22 334.04C207.08 322.6 217.99 314.53 230.94 311.3C248.04 307.03 265.78 309.67 280.89 318.74C296 327.81 306.68 342.23 310.95 359.33C313.15 368.16 313.95 377.18 313.33 386.16C310.75 423.47 284.62 454.62 248.31 463.68C207.19 473.95 164.52 460.34 136.92 428.16C125.64 415 117.77 399.73 113.53 382.77C105.4 350.21 109.03 315.71 123.77 285.62C127.24 278.52 124.31 269.96 117.22 266.49C110.13 263.01 101.57 265.95 98.09 273.04C80.39 309.18 76.02 350.61 85.79 389.71C91.12 411.01 101.01 430.21 115.21 446.77C142.25 478.3 180.83 495.65 221 495.65C232.36 495.65 243.84 494.26 255.24 491.42Z" id="aAvCkdDXR"></path><path d="M473.22 553.51C478.16 553.51 482.75 550.95 485.36 546.75C487.97 542.56 488.22 537.31 486.04 532.88C483.82 528.39 466.09 492.49 463.87 488.01C474.2 482.46 489.01 473.18 504.62 459.03C528.97 436.96 559.96 398.45 573.57 338.13C610.56 335.97 640 305.18 640 267.65C640 248.8 632.66 231.07 619.33 217.73C605.98 204.39 588.25 197.05 569.4 197.05C566.21 197.05 540.65 197.05 537.45 197.05C521.25 197.05 505.4 202.72 492.84 213.01C484.89 219.49 478.54 227.47 474 236.7C469.49 245.83 466.7 255.49 463.74 265.72C455.96 292.63 447.91 320.46 405.42 340.9C402.48 342.33 399.33 343.73 395.74 345.2C395.74 345.2 395.7 345.21 395.69 345.22C388.31 348.01 384.58 356.26 387.37 363.65C390.17 371.03 398.41 374.76 405.8 371.96C405.83 371.95 406.01 371.88 406.03 371.87C406.15 371.83 406.26 371.78 406.38 371.74C410.62 370.01 414.38 368.34 417.87 366.64C471.83 340.69 482.58 303.52 491.21 273.67C493.81 264.69 496.26 256.21 499.65 249.34C502.37 243.81 506.17 239.04 510.93 235.15C518.43 229.01 527.84 225.64 537.45 225.64C540.65 225.64 566.21 225.64 569.4 225.64C580.62 225.64 591.17 230.01 599.12 237.95C607.04 245.88 611.41 256.43 611.41 267.65C611.41 290.81 592.57 309.66 569.4 309.66C568.65 309.66 562.61 309.66 561.86 309.66C554.93 309.66 549.01 314.62 547.78 321.43C527.53 434.22 440.54 467.59 439.67 467.91C435.87 469.32 432.84 472.27 431.34 476.03C429.84 479.8 430.01 484.02 431.81 487.65C433.03 490.14 439.17 502.56 450.21 524.91C204.9 524.91 68.61 524.91 41.36 524.91C56.16 506.75 84.23 478.68 133.04 449.95C137.41 447.5 140.37 442.83 140.37 437.46C140.37 429.57 133.98 423.17 126.08 423.17C126.08 423.17 126.07 423.17 126.07 423.17C123.52 423.17 121.02 423.85 118.82 425.14C27.87 478.6 2.41 530.9 1.37 533.1C-0.72 537.53 -0.4 542.72 2.22 546.86C4.84 551 9.4 553.51 14.3 553.51C106.08 553.51 427.32 553.51 473.22 553.51Z" id="b8wlNAUBzS"></path><path d="M516.19 224.07C516.19 211.74 516.19 113.12 516.19 100.79C516.19 92.9 509.79 86.49 501.9 86.49C494 86.49 487.6 92.9 487.6 100.79C487.6 113.12 487.6 211.74 487.6 224.07C487.6 231.97 494 238.37 501.9 238.37C509.79 238.37 516.19 231.96 516.19 224.07Z" id="c6k4wYpgz"></path><path d="M571.86 211.35C571.86 200.29 571.86 111.85 571.86 100.79C571.86 92.9 565.46 86.49 557.57 86.49C549.67 86.49 543.27 92.9 543.27 100.79C543.27 111.85 543.27 200.29 543.27 211.35C543.27 219.24 549.67 225.64 557.57 225.64C565.46 225.64 571.86 219.24 571.86 211.35Z" id="b1pQG38dvX"></path><path d="M552.15 265.37C552.15 264.84 552.15 260.55 552.15 260.01C552.15 252.12 545.75 245.72 537.85 245.72C529.96 245.72 523.56 252.12 523.56 260.01C523.56 260.55 523.56 264.84 523.56 265.37C523.56 273.27 529.96 279.67 537.85 279.67C545.75 279.67 552.15 273.27 552.15 265.37Z" id="bbAUR095V"></path></defs><g><g><g><use xlink:href="#a1xqx8fHaI" opacity="1" fill="#f0df9e" fill-opacity="1"></use><g><use xlink:href="#a1xqx8fHaI" opacity="1" fill-opacity="0" stroke="#000000" stroke-width="1" stroke-opacity="0"></use></g></g><g><use xlink:href="#j3ebbcdQ" opacity="1" fill="#a3875e" fill-opacity="1"></use><g><use xlink:href="#j3ebbcdQ" opacity="1" fill-opacity="0" stroke="#000000" stroke-width="1" stroke-opacity="0"></use></g></g><g><use xlink:href="#a1nHrr013s" opacity="1" fill="#000000" fill-opacity="1"></use><g><use xlink:href="#a1nHrr013s" opacity="1" fill-opacity="0" stroke="#000000" stroke-width="1" stroke-opacity="0"></use></g></g><g><use xlink:href="#b8uTsEvf8" opacity="1" fill="#000000" fill-opacity="1"></use><g><use xlink:href="#b8uTsEvf8" opacity="1" fill-opacity="0" stroke="#000000" stroke-width="1" stroke-opacity="0"></use></g></g><g><use xlink:href="#a3n8cZYNy7" opacity="1" fill="#000000" fill-opacity="1"></use><g><use xlink:href="#a3n8cZYNy7" opacity="1" fill-opacity="0" stroke="#000000" stroke-width="1" stroke-opacity="0"></use></g></g><g><use xlink:href="#aAvCkdDXR" opacity="1" fill="#000000" fill-opacity="1"></use><g><use xlink:href="#aAvCkdDXR" opacity="1" fill-opacity="0" stroke="#000000" stroke-width="1" stroke-opacity="0"></use></g></g><g><use xlink:href="#b8wlNAUBzS" opacity="1" fill="#000000" fill-opacity="1"></use><g><use xlink:href="#b8wlNAUBzS" opacity="1" fill-opacity="0" stroke="#000000" stroke-width="1" stroke-opacity="0"></use></g></g><g><use xlink:href="#c6k4wYpgz" opacity="1" fill="#000000" fill-opacity="1"></use><g><use xlink:href="#c6k4wYpgz" opacity="1" fill-opacity="0" stroke="#000000" stroke-width="1" stroke-opacity="0"></use></g></g><g><use xlink:href="#b1pQG38dvX" opacity="1" fill="#000000" fill-opacity="1"></use><g><use xlink:href="#b1pQG38dvX" opacity="1" fill-opacity="0" stroke="#000000" stroke-width="1" stroke-opacity="0"></use></g></g><g><use xlink:href="#bbAUR095V" opacity="1" fill="#000000" fill-opacity="1"></use><g><use xlink:href="#bbAUR095V" opacity="1" fill-opacity="0" stroke="#000000" stroke-width="1" stroke-opacity="0"></use></g></g></g></g></svg>